<svg width="48" height="48" viewBox="0 0 48 48" fill="none" xmlns="http://www.w3.org/2000/svg">
<path d="M8 20V20C6.21766 20 5.10027 18.0745 5.98456 16.527L10.1573 9.22471C10.8284 8.05024 11.164 7.463 11.6355 7.03578C12.0527 6.65778 12.545 6.37211 13.0801 6.19743C13.685 6 14.3614 6 15.7141 6H20M8 20V35.6C8 37.8402 8 38.9603 8.43597 39.816C8.81947 40.5686 9.43139 41.1805 10.184 41.564C11.0397 42 12.1598 42 14.4 42H33.6C35.8402 42 36.9603 42 37.816 41.564C38.5686 41.1805 39.1805 40.5686 39.564 39.816C40 38.9603 40 37.8402 40 35.6V20M8 20H16M40 20V20C41.7823 20 42.8997 18.0745 42.0154 16.527L37.8427 9.22471C37.1716 8.05024 36.836 7.463 36.3645 7.03578C35.9473 6.65778 35.455 6.37211 34.9199 6.19743C34.315 6 33.6386 6 32.2859 6H28M40 20H32M16 20H24H32M16 20L20 6M20 6H28M28 6L32 20" stroke="#657838" stroke-width="4" stroke-linecap="round"/>
<path d="M16 28H20" stroke="#657838" stroke-width="4" stroke-linecap="round"/>
<path d="M30 32L30 42" stroke="#657838" stroke-width="4" stroke-linecap="round"/>
</svg>
