<svg width="24" height="24" viewBox="0 0 24 24" fill="none" xmlns="http://www.w3.org/2000/svg">
<path d="M18.3 3H5.7C4.98392 3 4.29716 3.28446 3.79081 3.79081C3.28446 4.29716 3 4.98392 3 5.7V18.3C3 19.0161 3.28446 19.7028 3.79081 20.2092C4.29716 20.7155 4.98392 21 5.7 21H18.3C18.448 20.9979 18.5956 20.9829 18.741 20.955L19.011 20.892H19.074H19.119L19.452 20.766L19.569 20.703C19.659 20.649 19.758 20.604 19.848 20.541C19.9682 20.4526 20.0824 20.3564 20.19 20.253L20.253 20.172C20.3414 20.0825 20.4226 19.9862 20.496 19.884L20.577 19.767C20.6399 19.6668 20.6941 19.5614 20.739 19.452C20.7637 19.4088 20.7848 19.3637 20.802 19.317C20.847 19.209 20.874 19.092 20.91 18.975V18.84C20.961 18.6641 20.9912 18.4829 21 18.3V5.7C21 4.98392 20.7155 4.29716 20.2092 3.79081C19.7028 3.28446 19.0161 3 18.3 3ZM5.7 19.2C5.46131 19.2 5.23239 19.1052 5.0636 18.9364C4.89482 18.7676 4.8 18.5387 4.8 18.3V14.421L7.761 11.451C7.84467 11.3666 7.94421 11.2997 8.05388 11.254C8.16355 11.2083 8.28119 11.1848 8.4 11.1848C8.51881 11.1848 8.63645 11.2083 8.74612 11.254C8.85579 11.2997 8.95533 11.3666 9.039 11.451L16.779 19.2H5.7ZM19.2 18.3C19.1992 18.411 19.1778 18.5208 19.137 18.624C19.1164 18.6679 19.0924 18.71 19.065 18.75C19.0409 18.7881 19.0138 18.8242 18.984 18.858L14.169 14.043L14.961 13.251C15.0447 13.1666 15.1442 13.0997 15.2539 13.054C15.3636 13.0083 15.4812 12.9848 15.6 12.9848C15.7188 12.9848 15.8364 13.0083 15.9461 13.054C16.0558 13.0997 16.1553 13.1666 16.239 13.251L19.2 16.221V18.3ZM19.2 13.674L17.508 12C16.9929 11.5113 16.31 11.2389 15.6 11.2389C14.89 11.2389 14.2071 11.5113 13.692 12L12.9 12.792L10.308 10.2C9.79295 9.71129 9.11001 9.43885 8.4 9.43885C7.68999 9.43885 7.00705 9.71129 6.492 10.2L4.8 11.874V5.7C4.8 5.46131 4.89482 5.23239 5.0636 5.0636C5.23239 4.89482 5.46131 4.8 5.7 4.8H18.3C18.5387 4.8 18.7676 4.89482 18.9364 5.0636C19.1052 5.23239 19.2 5.46131 19.2 5.7V13.674ZM13.35 6.6C13.083 6.6 12.822 6.67918 12.6 6.82752C12.378 6.97586 12.2049 7.1867 12.1028 7.43338C12.0006 7.68006 11.9738 7.9515 12.0259 8.21337C12.078 8.47525 12.2066 8.71579 12.3954 8.90459C12.5842 9.0934 12.8248 9.22197 13.0866 9.27406C13.3485 9.32615 13.6199 9.29942 13.8666 9.19724C14.1133 9.09506 14.3241 8.92203 14.4725 8.70002C14.6208 8.47801 14.7 8.217 14.7 7.95C14.7 7.59196 14.5578 7.24858 14.3046 6.99541C14.0514 6.74223 13.708 6.6 13.35 6.6Z" fill="#657838"/>
</svg>
