<svg width="48" height="48" viewBox="0 0 48 48" fill="none" xmlns="http://www.w3.org/2000/svg">
<path d="M36.6 6H11.4C9.96783 6 8.59432 6.56893 7.58162 7.58162C6.56893 8.59432 6 9.96783 6 11.4V36.6C6 38.0322 6.56893 39.4057 7.58162 40.4184C8.59432 41.4311 9.96783 42 11.4 42H36.6C36.8961 41.9959 37.1912 41.9658 37.482 41.91L38.022 41.784H38.148H38.238L38.904 41.532L39.138 41.406C39.318 41.298 39.516 41.208 39.696 41.082C39.9364 40.9052 40.1648 40.7128 40.38 40.506L40.506 40.344C40.6827 40.1649 40.8452 39.9723 40.992 39.768L41.154 39.534C41.2797 39.3336 41.3881 39.1228 41.478 38.904C41.5274 38.8176 41.5695 38.7273 41.604 38.634C41.694 38.418 41.748 38.184 41.82 37.95V37.68C41.9221 37.3283 41.9825 36.9658 42 36.6V11.4C42 9.96783 41.4311 8.59432 40.4184 7.58162C39.4057 6.56893 38.0322 6 36.6 6ZM11.4 38.4C10.9226 38.4 10.4648 38.2104 10.1272 37.8728C9.78964 37.5352 9.6 37.0774 9.6 36.6V28.842L15.522 22.902C15.6893 22.7333 15.8884 22.5994 16.1078 22.508C16.3271 22.4166 16.5624 22.3696 16.8 22.3696C17.0376 22.3696 17.2729 22.4166 17.4922 22.508C17.7116 22.5994 17.9107 22.7333 18.078 22.902L33.558 38.4H11.4ZM38.4 36.6C38.3983 36.8219 38.3556 37.0416 38.274 37.248C38.2329 37.3357 38.1847 37.42 38.13 37.5C38.0818 37.5762 38.0277 37.6484 37.968 37.716L28.338 28.086L29.922 26.502C30.0893 26.3333 30.2884 26.1994 30.5078 26.108C30.7271 26.0166 30.9624 25.9696 31.2 25.9696C31.4376 25.9696 31.6729 26.0166 31.8922 26.108C32.1116 26.1994 32.3107 26.3333 32.478 26.502L38.4 32.442V36.6ZM38.4 27.348L35.016 24C33.9859 23.0226 32.62 22.4777 31.2 22.4777C29.78 22.4777 28.4141 23.0226 27.384 24L25.8 25.584L20.616 20.4C19.5859 19.4226 18.22 18.8777 16.8 18.8777C15.38 18.8777 14.0141 19.4226 12.984 20.4L9.6 23.748V11.4C9.6 10.9226 9.78964 10.4648 10.1272 10.1272C10.4648 9.78964 10.9226 9.6 11.4 9.6H36.6C37.0774 9.6 37.5352 9.78964 37.8728 10.1272C38.2104 10.4648 38.4 10.9226 38.4 11.4V27.348ZM26.7 13.2C26.166 13.2 25.644 13.3584 25.2 13.655C24.756 13.9517 24.4099 14.3734 24.2055 14.8668C24.0012 15.3601 23.9477 15.903 24.0519 16.4267C24.1561 16.9505 24.4132 17.4316 24.7908 17.8092C25.1684 18.1868 25.6495 18.4439 26.1733 18.5481C26.697 18.6523 27.2399 18.5988 27.7332 18.3945C28.2266 18.1901 28.6483 17.8441 28.945 17.4C29.2417 16.956 29.4 16.434 29.4 15.9C29.4 15.1839 29.1155 14.4972 28.6092 13.9908C28.1028 13.4845 27.4161 13.2 26.7 13.2Z" fill="#657838"/>
</svg>
