<svg width="24" height="24" viewBox="0 0 24 24" fill="none" xmlns="http://www.w3.org/2000/svg">
<path d="M13.3 12.72C13.8336 12.2581 14.2616 11.6869 14.5549 11.045C14.8482 10.4032 15 9.70571 15 9C15 7.67392 14.4732 6.40215 13.5355 5.46447C12.5979 4.52678 11.3261 4 10 4C8.67392 4 7.40215 4.52678 6.46447 5.46447C5.52678 6.40215 5 7.67392 5 9C4.99999 9.70571 5.1518 10.4032 5.44513 11.045C5.73845 11.6869 6.16642 12.2581 6.7 12.72C5.30014 13.3539 4.11247 14.3775 3.27898 15.6685C2.4455 16.9596 2.00147 18.4633 2 20C2 20.2652 2.10536 20.5196 2.29289 20.7071C2.48043 20.8946 2.73478 21 3 21C3.26522 21 3.51957 20.8946 3.70711 20.7071C3.89464 20.5196 4 20.2652 4 20C4 18.4087 4.63214 16.8826 5.75736 15.7574C6.88258 14.6321 8.4087 14 10 14C11.5913 14 13.1174 14.6321 14.2426 15.7574C15.3679 16.8826 16 18.4087 16 20C16 20.2652 16.1054 20.5196 16.2929 20.7071C16.4804 20.8946 16.7348 21 17 21C17.2652 21 17.5196 20.8946 17.7071 20.7071C17.8946 20.5196 18 20.2652 18 20C17.9985 18.4633 17.5545 16.9596 16.721 15.6685C15.8875 14.3775 14.6999 13.3539 13.3 12.72ZM10 12C9.40666 12 8.82664 11.8241 8.33329 11.4944C7.83994 11.1648 7.45542 10.6962 7.22836 10.1481C7.0013 9.59987 6.94189 8.99667 7.05764 8.41473C7.1734 7.83279 7.45912 7.29824 7.87868 6.87868C8.29824 6.45912 8.83279 6.1734 9.41473 6.05764C9.99667 5.94189 10.5999 6.0013 11.1481 6.22836C11.6962 6.45542 12.1648 6.83994 12.4944 7.33329C12.8241 7.82664 13 8.40666 13 9C13 9.79565 12.6839 10.5587 12.1213 11.1213C11.5587 11.6839 10.7956 12 10 12ZM20.91 12.5L21.71 11.71C21.8032 11.6168 21.8772 11.5061 21.9277 11.3842C21.9781 11.2624 22.0041 11.1319 22.0041 11C22.0041 10.8681 21.9781 10.7376 21.9277 10.6158C21.8772 10.4939 21.8032 10.3832 21.71 10.29C21.6168 10.1968 21.5061 10.1228 21.3842 10.0723C21.2624 10.0219 21.1319 9.99591 21 9.99591C20.8681 9.99591 20.7376 10.0219 20.6158 10.0723C20.4939 10.1228 20.3832 10.1968 20.29 10.29L19.5 11.09L18.71 10.29C18.6168 10.1968 18.5061 10.1228 18.3842 10.0723C18.2624 10.0219 18.1319 9.99591 18 9.99591C17.7337 9.99591 17.4783 10.1017 17.29 10.29C17.1968 10.3832 17.1228 10.4939 17.0723 10.6158C17.0219 10.7376 16.9959 10.8681 16.9959 11C16.9959 11.2663 17.1017 11.5217 17.29 11.71L18.09 12.5L17.29 13.29C17.1963 13.383 17.1219 13.4936 17.0711 13.6154C17.0203 13.7373 16.9942 13.868 16.9942 14C16.9942 14.132 17.0203 14.2627 17.0711 14.3846C17.1219 14.5064 17.1963 14.617 17.29 14.71C17.383 14.8037 17.4936 14.8781 17.6154 14.9289C17.7373 14.9797 17.868 15.0058 18 15.0058C18.132 15.0058 18.2627 14.9797 18.3846 14.9289C18.5064 14.8781 18.617 14.8037 18.71 14.71L19.5 13.91L20.29 14.71C20.383 14.8037 20.4936 14.8781 20.6154 14.9289C20.7373 14.9797 20.868 15.0058 21 15.0058C21.132 15.0058 21.2627 14.9797 21.3846 14.9289C21.5064 14.8781 21.617 14.8037 21.71 14.71C21.8037 14.617 21.8781 14.5064 21.9289 14.3846C21.9797 14.2627 22.0058 14.132 22.0058 14C22.0058 13.868 21.9797 13.7373 21.9289 13.6154C21.8781 13.4936 21.8037 13.383 21.71 13.29L20.91 12.5Z" fill="#657838"/>
</svg>
