<svg width="24" height="24" viewBox="0 0 24 24" fill="none" xmlns="http://www.w3.org/2000/svg">
<path d="M22.25 8.08298V12.0575M5.0375 14.5415V18.7644C5.0375 18.995 5.0375 19.1104 5.04725 19.2076C5.14195 20.151 5.90259 20.8975 6.86402 20.9904C6.96302 21 7.08056 21 7.31563 21C7.5507 21 7.66823 21 7.76724 20.9904C8.72866 20.8975 9.48931 20.151 9.584 19.2076C9.59375 19.1104 9.59375 18.995 9.59375 18.7644V14.5415M5.0375 14.5415C4.09397 14.5415 3.6222 14.5415 3.25007 14.3902C2.75389 14.1885 2.35967 13.8017 2.15415 13.3147C2 12.9495 2 12.4866 2 11.5606L2 10.3683C2 8.69887 2 7.86415 2.33107 7.22651C2.62228 6.66563 3.08696 6.20962 3.6585 5.92383C4.30826 5.59894 5.15884 5.59894 6.86 5.59894H9.59375M5.0375 14.5415H9.59375M9.59375 14.5415H10.3531C12.1416 14.5415 14.3295 15.4823 16.0173 16.3853C17.002 16.9121 17.4944 17.1754 17.8168 17.1367C18.1159 17.1007 18.342 16.969 18.5172 16.7286C18.7063 16.4693 18.7063 15.9504 18.7063 14.9128V5.22761C18.7063 4.18999 18.7063 3.67117 18.5172 3.41188C18.342 3.17143 18.1159 3.03968 17.8168 3.00374C17.4944 2.96498 17.002 3.22837 16.0173 3.75514C14.3295 4.65809 12.1416 5.59894 10.3531 5.59894H9.59375M9.59375 14.5415V5.59894" stroke="#657838" stroke-width="2.25" stroke-linecap="round" stroke-linejoin="round"/>
</svg>
