<svg width="24" height="24" viewBox="0 0 24 24" fill="none" xmlns="http://www.w3.org/2000/svg">
<path d="M4 7L4.29289 6.70711C4.74565 6.25435 5.35971 6 6 6C6.64029 6 7.25435 6.25435 7.70711 6.70711L8.29289 7.29289C8.74565 7.74565 9.35971 8 10 8C10.6403 8 11.2544 7.74565 11.7071 7.29289L12.2929 6.70711C12.7456 6.25435 13.3597 6 14 6C14.6403 6 15.2544 6.25435 15.7071 6.70711L16.2929 7.29289C16.7456 7.74565 17.3597 8 18 8C18.6403 8 19.2544 7.74565 19.7071 7.29289L20 7M4 12L4.29289 11.7071C4.74565 11.2544 5.35971 11 6 11C6.64029 11 7.25435 11.2544 7.70711 11.7071L8.29289 12.2929C8.74565 12.7456 9.35971 13 10 13C10.6403 13 11.2544 12.7456 11.7071 12.2929L12.2929 11.7071C12.7456 11.2544 13.3597 11 14 11C14.6403 11 15.2544 11.2544 15.7071 11.7071L16.2929 12.2929C16.7456 12.7456 17.3597 13 18 13C18.6403 13 19.2544 12.7456 19.7071 12.2929L20 12M4 17L4.29289 16.7071C4.74565 16.2544 5.35971 16 6 16C6.64029 16 7.25435 16.2544 7.70711 16.7071L8.29289 17.2929C8.74565 17.7456 9.35971 18 10 18C10.6403 18 11.2544 17.7456 11.7071 17.2929L12.2929 16.7071C12.7456 16.2544 13.3597 16 14 16C14.6403 16 15.2544 16.2544 15.7071 16.7071L16.2929 17.2929C16.7456 17.7456 17.3597 18 18 18C18.6403 18 19.2544 17.7456 19.7071 17.2929L20 17" stroke="#657838" stroke-width="2" stroke-linecap="round"/>
</svg>
