<svg width="49" height="48" viewBox="0 0 49 48" fill="none" xmlns="http://www.w3.org/2000/svg">
<path d="M8.5 14L9.08579 13.4142C9.99129 12.5087 11.2194 12 12.5 12C13.7806 12 15.0087 12.5087 15.9142 13.4142L17.0858 14.5858C17.9913 15.4913 19.2194 16 20.5 16C21.7806 16 23.0087 15.4913 23.9142 14.5858L25.0858 13.4142C25.9913 12.5087 27.2194 12 28.5 12C29.7806 12 31.0087 12.5087 31.9142 13.4142L33.0858 14.5858C33.9913 15.4913 35.2194 16 36.5 16C37.7806 16 39.0087 15.4913 39.9142 14.5858L40.5 14M8.5 24L9.08579 23.4142C9.99129 22.5087 11.2194 22 12.5 22C13.7806 22 15.0087 22.5087 15.9142 23.4142L17.0858 24.5858C17.9913 25.4913 19.2194 26 20.5 26C21.7806 26 23.0087 25.4913 23.9142 24.5858L25.0858 23.4142C25.9913 22.5087 27.2194 22 28.5 22C29.7806 22 31.0087 22.5087 31.9142 23.4142L33.0858 24.5858C33.9913 25.4913 35.2194 26 36.5 26C37.7806 26 39.0087 25.4913 39.9142 24.5858L40.5 24M8.5 34L9.08579 33.4142C9.99129 32.5087 11.2194 32 12.5 32C13.7806 32 15.0087 32.5087 15.9142 33.4142L17.0858 34.5858C17.9913 35.4913 19.2194 36 20.5 36C21.7806 36 23.0087 35.4913 23.9142 34.5858L25.0858 33.4142C25.9913 32.5087 27.2194 32 28.5 32C29.7806 32 31.0087 32.5087 31.9142 33.4142L33.0858 34.5858C33.9913 35.4913 35.2194 36 36.5 36C37.7806 36 39.0087 35.4913 39.9142 34.5858L40.5 34" stroke="#657838" stroke-width="4" stroke-linecap="round"/>
</svg>
