<svg width="24" height="24" viewBox="0 0 24 24" fill="none" xmlns="http://www.w3.org/2000/svg">
<path d="M9 10L14 15M23 12C23 18.0751 18.0751 23 12 23C5.92487 23 1 18.0751 1 12C1 5.92487 5.92487 1 12 1C18.0751 1 23 5.92487 23 12ZM9.23597 9.91151L15.97 7.38624C16.372 7.23551 16.7645 7.62802 16.6138 8.02996L14.0885 14.764C14.0328 14.9125 13.9101 15.0257 13.7577 15.0692L7.86537 16.7528C7.4882 16.8605 7.13948 16.5118 7.24725 16.1346L8.93077 10.2423C8.97431 10.0899 9.08755 9.96717 9.23597 9.91151Z" stroke="#657838" stroke-width="2"/>
</svg>
