<svg width="24" height="24" viewBox="0 0 24 24" fill="none" xmlns="http://www.w3.org/2000/svg">
<path d="M19.5295 3.28134L19.0181 4.14067L19.5295 3.28134ZM20.1345 6.89418L19.1583 6.67725L20.1345 6.89418ZM20.4063 4.37434L21.3561 4.06151V4.06151L20.4063 4.37434ZM4.47027 3.28134L4.98169 4.14067L4.47027 3.28134ZM3.86526 6.89418L2.88907 7.11111L3.86526 6.89418ZM3.5935 4.37434L2.64369 4.06151L3.5935 4.37434ZM3.27031 19.7831L4.2465 20L3.27031 19.7831ZM20.7295 19.7831L21.7056 19.5661L20.7295 19.7831ZM9.99988 17C9.4476 17 8.99988 17.4477 8.99988 18C8.99988 18.5523 9.4476 19 9.99988 19V17ZM13.9999 19C14.5522 19 14.9999 18.5523 14.9999 18C14.9999 17.4477 14.5522 17 13.9999 17V19ZM6.98905 4H17.0107V2H6.98905V4ZM19.1583 6.67725L18.0237 11.7831L19.9761 12.2169L21.1107 7.11111L19.1583 6.67725ZM18.9999 11H4.99988V13H18.9999V11ZM5.97607 11.7831L4.84144 6.67725L2.88907 7.11111L4.0237 12.2169L5.97607 11.7831ZM17.0107 4C17.7109 4 18.1707 4.00091 18.5168 4.03133C18.8547 4.06103 18.9697 4.11187 19.0181 4.14067L20.0409 2.42201C19.6166 2.16947 19.1542 2.07964 18.6919 2.03901C18.2378 1.99909 17.6746 2 17.0107 2V4ZM21.1107 7.11111C21.2547 6.46307 21.3778 5.91346 21.4373 5.46149C21.4979 5.00142 21.5106 4.53052 21.3561 4.06151L19.4565 4.68717C19.4741 4.74066 19.4988 4.86391 19.4545 5.20024C19.4091 5.54467 19.3102 5.99373 19.1583 6.67725L21.1107 7.11111ZM19.0181 4.14067C19.2253 4.26401 19.381 4.4581 19.4565 4.68717L21.3561 4.06151C21.1297 3.3743 20.6627 2.79204 20.0409 2.42201L19.0181 4.14067ZM6.98905 2C6.32521 2 5.76199 1.99909 5.30786 2.03901C4.8456 2.07964 4.38318 2.16947 3.95885 2.42201L4.98169 4.14067C5.03009 4.11187 5.14504 4.06103 5.48298 4.03133C5.82905 4.00091 6.28886 4 6.98905 4V2ZM4.84144 6.67725C4.68955 5.99373 4.59069 5.54467 4.54531 5.20024C4.501 4.86391 4.52569 4.74066 4.54331 4.68717L2.64369 4.06151C2.48921 4.53052 2.50183 5.00142 2.56245 5.46149C2.622 5.91346 2.74506 6.46307 2.88907 7.11111L4.84144 6.67725ZM3.95885 2.42201C3.3371 2.79204 2.87003 3.3743 2.64369 4.06151L4.54331 4.68717C4.61875 4.4581 4.77444 4.26401 4.98169 4.14067L3.95885 2.42201ZM4.0237 11.7831L2.29413 19.5661L4.2465 20L5.97607 12.2169L4.0237 11.7831ZM4.2465 22H19.7533V20H4.2465V22ZM21.7056 19.5661L19.9761 11.7831L18.0237 12.2169L19.7533 20L21.7056 19.5661ZM19.7533 22C21.0328 22 21.9832 20.8152 21.7056 19.5661L19.7533 20V22ZM2.29413 19.5661C2.01656 20.8152 2.967 22 4.2465 22V20H4.2465L2.29413 19.5661ZM9.99988 19H13.9999V17H9.99988V19Z" fill="#657838"/>
</svg>
