<svg width="24" height="24" viewBox="0 0 24 24" fill="none" xmlns="http://www.w3.org/2000/svg">
<path d="M17.0396 9C17.4351 9 17.8218 8.8827 18.1507 8.66294C18.4796 8.44318 18.7359 8.13082 18.8873 7.76537C19.0387 7.39992 19.0783 6.99778 19.0011 6.60982C18.924 6.22186 18.7335 5.86549 18.4538 5.58579C18.1741 5.30608 17.8177 5.1156 17.4297 5.03843C17.0418 4.96126 16.6396 5.00087 16.2742 5.15224C15.9087 5.30362 15.5964 5.55996 15.3766 5.88886C15.1569 6.21776 15.0396 6.60444 15.0396 7C15.0396 7.53043 15.2503 8.03914 15.6254 8.41421C16.0004 8.78929 16.5091 9 17.0396 9ZM2.74956 13.64C2.94772 13.7033 3.13875 13.7871 3.31956 13.89C3.94149 14.2538 4.64904 14.4456 5.36956 14.4456C6.09009 14.4456 6.79763 14.2538 7.41956 13.89C7.81064 13.671 8.25136 13.556 8.69956 13.556C9.14777 13.556 9.58849 13.671 9.97956 13.89L10.1896 13.99C10.7964 14.2854 11.4662 14.428 12.1407 14.4053C12.8152 14.3827 13.474 14.1955 14.0596 13.86C14.4506 13.641 14.8914 13.526 15.3396 13.526C15.7878 13.526 16.2285 13.641 16.6196 13.86C17.2533 14.2222 17.9696 14.4151 18.6996 14.42C19.4039 14.4127 20.0938 14.2195 20.6996 13.86C20.8804 13.7571 21.0714 13.6733 21.2696 13.61C21.4174 13.5998 21.5611 13.5569 21.6903 13.4844C21.8195 13.4119 21.9309 13.3116 22.0166 13.1908C22.1023 13.0699 22.1601 12.9315 22.1858 12.7856C22.2114 12.6397 22.2044 12.4899 22.1651 12.3471C22.1258 12.2042 22.0552 12.0719 21.9585 11.9597C21.8618 11.8474 21.7414 11.7581 21.6059 11.6981C21.4705 11.6381 21.3234 11.6089 21.1753 11.6127C21.0272 11.6165 20.8818 11.6531 20.7496 11.72C20.4006 11.8283 20.0651 11.9759 19.7496 12.16C19.4303 12.3443 19.0682 12.4413 18.6996 12.4413C18.3309 12.4413 17.9688 12.3443 17.6496 12.16C16.9568 11.7692 16.1749 11.5639 15.3796 11.5639C14.5842 11.5639 13.8023 11.7692 13.1096 12.16C13.0155 12.206 12.9186 12.2461 12.8196 12.28L14.3796 10.72C14.4153 10.6737 14.4455 10.6233 14.4696 10.57C14.5148 10.5208 14.555 10.4672 14.5896 10.41C14.5942 10.3468 14.5942 10.2832 14.5896 10.22C14.5953 10.1568 14.5953 10.0932 14.5896 10.03C14.5944 9.9701 14.5944 9.90991 14.5896 9.85C14.5953 9.7868 14.5953 9.72321 14.5896 9.66C14.56 9.60121 14.5266 9.54443 14.4896 9.49C14.4636 9.4324 14.43 9.37858 14.3896 9.33L11.3196 6C11.2388 5.91195 11.1442 5.83764 11.0396 5.78C10.9699 5.77077 10.8993 5.77077 10.8296 5.78C10.7733 5.77085 10.7159 5.77085 10.6596 5.78C10.5264 5.72644 10.3824 5.70585 10.2396 5.72L6.69956 7.04C6.45033 7.13026 6.24712 7.31579 6.13462 7.55581C6.02211 7.79582 6.0095 8.07069 6.09956 8.32C6.18983 8.56924 6.37535 8.77244 6.61537 8.88495C6.85539 8.99746 7.13025 9.01006 7.37956 8.92L10.3096 7.85L12.3096 9.97L10.4096 11.87C9.77297 11.6225 9.08942 11.5193 8.40813 11.5677C7.72684 11.6161 7.06477 11.815 6.46956 12.15C6.15032 12.3343 5.78819 12.4313 5.41956 12.4313C5.05094 12.4313 4.6888 12.3343 4.36956 12.15C4.05398 11.9659 3.7185 11.8183 3.36956 11.71C3.24161 11.6623 3.10524 11.6412 2.96886 11.6482C2.83247 11.6552 2.69896 11.6901 2.57656 11.7506C2.45415 11.8112 2.34545 11.8962 2.25715 12.0003C2.16885 12.1045 2.10283 12.2257 2.06314 12.3563C2.02346 12.487 2.01097 12.6244 2.02643 12.7601C2.04189 12.8958 2.08498 13.0269 2.15304 13.1453C2.2211 13.2637 2.31269 13.3669 2.42217 13.4485C2.53164 13.5302 2.65667 13.5885 2.78956 13.62L2.74956 13.64ZM20.7496 16.73C20.4006 16.8383 20.0651 16.9859 19.7496 17.17C19.4303 17.3543 19.0682 17.4513 18.6996 17.4513C18.3309 17.4513 17.9688 17.3543 17.6496 17.17C16.9568 16.7792 16.1749 16.5739 15.3796 16.5739C14.5842 16.5739 13.8023 16.7792 13.1096 17.17C12.7876 17.3571 12.4219 17.4556 12.0496 17.4556C11.6772 17.4556 11.3115 17.3571 10.9896 17.17C10.2968 16.7792 9.51493 16.5739 8.71956 16.5739C7.9242 16.5739 7.1423 16.7792 6.44956 17.17C6.13032 17.3543 5.76819 17.4513 5.39956 17.4513C5.03094 17.4513 4.6688 17.3543 4.34956 17.17C4.03398 16.9859 3.6985 16.8383 3.34956 16.73C3.22161 16.6823 3.08524 16.6612 2.94886 16.6682C2.81247 16.6752 2.67896 16.7101 2.55656 16.7706C2.43415 16.8312 2.32545 16.9162 2.23715 17.0203C2.14885 17.1245 2.08283 17.2457 2.04314 17.3764C2.00346 17.507 1.99097 17.6444 2.00643 17.7801C2.02189 17.9158 2.06498 18.0469 2.13304 18.1653C2.2011 18.2837 2.29269 18.3869 2.40217 18.4685C2.51164 18.5502 2.63667 18.6085 2.76956 18.64C2.96772 18.7033 3.15875 18.7871 3.33956 18.89C3.96149 19.2538 4.66904 19.4456 5.38956 19.4456C6.11009 19.4456 6.81763 19.2538 7.43956 18.89C7.83064 18.671 8.27136 18.556 8.71956 18.556C9.16777 18.556 9.60849 18.671 9.99956 18.89C10.6269 19.2487 11.337 19.4374 12.0596 19.4374C12.7822 19.4374 13.4923 19.2487 14.1196 18.89C14.5106 18.671 14.9514 18.556 15.3996 18.556C15.8478 18.556 16.2885 18.671 16.6796 18.89C17.3133 19.2522 18.0296 19.4451 18.7596 19.45C19.4639 19.4427 20.1538 19.2495 20.7596 18.89C20.9404 18.7871 21.1314 18.7033 21.3296 18.64C21.4556 18.6019 21.573 18.5394 21.6749 18.4559C21.7768 18.3725 21.8612 18.2698 21.9234 18.1538C21.9857 18.0377 22.0244 17.9105 22.0375 17.7795C22.0505 17.6484 22.0376 17.5161 21.9996 17.39C21.9615 17.2639 21.8989 17.1466 21.8155 17.0447C21.7321 16.9428 21.6294 16.8583 21.5133 16.7961C21.3973 16.7339 21.2701 16.6952 21.139 16.6821C21.008 16.669 20.8756 16.6819 20.7496 16.72V16.73Z" fill="#657838"/>
</svg>
