<svg width="33" height="32" viewBox="0 0 33 32" fill="none" xmlns="http://www.w3.org/2000/svg">
<rect x="0.428467" width="32" height="32" rx="16" fill="#657838"/>
<rect width="18.2857" height="18.2857" transform="translate(7.2854 6.85547)" fill="#657838"/>
<path d="M10.3329 22.0948C9.91384 22.0948 9.55524 21.9457 9.25708 21.6475C8.95892 21.3494 8.80959 20.9905 8.80908 20.571V11.4281C8.80908 11.0091 8.95842 10.6505 9.25708 10.3523C9.55575 10.0541 9.91435 9.9048 10.3329 9.9043H22.5234C22.9424 9.9043 23.3013 10.0536 23.5999 10.3523C23.8986 10.651 24.0477 11.0096 24.0472 11.4281V20.571C24.0472 20.99 23.8981 21.3489 23.5999 21.6475C23.3018 21.9462 22.9429 22.0953 22.5234 22.0948H10.3329ZM16.4281 16.7614L10.3329 12.9519V20.571H22.5234V12.9519L16.4281 16.7614ZM16.4281 15.2376L22.5234 11.4281H10.3329L16.4281 15.2376ZM10.3329 12.9519V11.4281V20.571V12.9519Z" fill="#EBEBEB"/>
</svg>
