<svg width="48" height="48" viewBox="0 0 48 48" fill="none" xmlns="http://www.w3.org/2000/svg">
<rect width="48" height="48" rx="24" fill="#657838"/>
<path d="M30.6666 20.3334H26.6666" stroke="white" stroke-miterlimit="10" stroke-linecap="round" stroke-linejoin="round"/>
<path d="M20 20.3334H17.3334" stroke="white" stroke-miterlimit="10" stroke-linecap="round" stroke-linejoin="round"/>
<path d="M22.6667 22.6667C23.9554 22.6667 25 21.622 25 20.3333C25 19.0447 23.9554 18 22.6667 18C21.378 18 20.3334 19.0447 20.3334 20.3333C20.3334 21.622 21.378 22.6667 22.6667 22.6667Z" stroke="white" stroke-miterlimit="10" stroke-linecap="round" stroke-linejoin="round"/>
<path d="M30.6667 27.6666H28" stroke="white" stroke-miterlimit="10" stroke-linecap="round" stroke-linejoin="round"/>
<path d="M21.3334 27.6666H17.3334" stroke="white" stroke-miterlimit="10" stroke-linecap="round" stroke-linejoin="round"/>
<path d="M25.3333 30C26.622 30 27.6667 28.9554 27.6667 27.6667C27.6667 26.378 26.622 25.3334 25.3333 25.3334C24.0447 25.3334 23 26.378 23 27.6667C23 28.9554 24.0447 30 25.3333 30Z" stroke="white" stroke-miterlimit="10" stroke-linecap="round" stroke-linejoin="round"/>
</svg>
