<svg width="24" height="25" viewBox="0 0 24 25" fill="none" xmlns="http://www.w3.org/2000/svg">
<path fill-rule="evenodd" clip-rule="evenodd" d="M8.70708 7.79304C8.51848 7.61088 8.26588 7.51009 8.00368 7.51237C7.74148 7.51465 7.49067 7.61981 7.30526 7.80522C7.11985 7.99063 7.01469 8.24144 7.01241 8.50364C7.01013 8.76584 7.11092 9.01844 7.29308 9.20704L10.5861 12.5L7.29308 15.793C7.19757 15.8853 7.12139 15.9956 7.06898 16.1176C7.01657 16.2396 6.98898 16.3709 6.98783 16.5036C6.98668 16.6364 7.01198 16.7681 7.06226 16.891C7.11254 17.0139 7.18679 17.1255 7.28069 17.2194C7.37458 17.3133 7.48623 17.3876 7.60913 17.4379C7.73202 17.4881 7.8637 17.5134 7.99648 17.5123C8.12926 17.5111 8.26048 17.4836 8.38249 17.4311C8.50449 17.3787 8.61483 17.3026 8.70708 17.207L12.0001 13.914L15.2931 17.207C15.4817 17.3892 15.7343 17.49 15.9965 17.4877C16.2587 17.4854 16.5095 17.3803 16.6949 17.1949C16.8803 17.0095 16.9855 16.7586 16.9878 16.4964C16.99 16.2342 16.8892 15.9816 16.7071 15.793L13.4141 12.5L16.7071 9.20704C16.8892 9.01844 16.99 8.76584 16.9878 8.50364C16.9855 8.24144 16.8803 7.99063 16.6949 7.80522C16.5095 7.61981 16.2587 7.51465 15.9965 7.51237C15.7343 7.51009 15.4817 7.61088 15.2931 7.79304L12.0001 11.086L8.70708 7.79304Z" fill="black" fill-opacity="0.12"/>
</svg>
