<svg width="32" height="32" viewBox="0 0 32 32" fill="none" xmlns="http://www.w3.org/2000/svg">
<circle cx="16" cy="16" r="16" fill="#657838"/>
<path d="M16.001 9.65186C18.0681 9.65186 18.3129 9.6596 19.1294 9.69684C19.6204 9.70284 20.1067 9.793 20.5672 9.96338C20.9012 10.0922 21.2045 10.2895 21.4576 10.5426C21.7107 10.7956 21.9079 11.0989 22.0367 11.4329C22.2071 11.8934 22.2973 12.3797 22.3033 12.8707C22.3401 13.6873 22.3483 13.932 22.3483 15.9991C22.3483 18.0662 22.3405 18.311 22.3033 19.1276C22.2973 19.6186 22.2071 20.1049 22.0367 20.5654C21.9079 20.8994 21.7107 21.2026 21.4576 21.4557C21.2045 21.7088 20.9012 21.9061 20.5672 22.0349C20.1067 22.2053 19.6204 22.2954 19.1294 22.3014C18.3132 22.3383 18.0684 22.3464 16.001 22.3464C13.9335 22.3464 13.6887 22.3387 12.8725 22.3014C12.3815 22.2954 11.8952 22.2053 11.4347 22.0349C11.1008 21.9061 10.7975 21.7088 10.5444 21.4557C10.2913 21.2026 10.094 20.8994 9.96521 20.5654C9.79483 20.1049 9.70467 19.6186 9.69866 19.1276C9.6618 18.311 9.65369 18.0662 9.65369 15.9991C9.65369 13.932 9.66143 13.6873 9.69866 12.8707C9.70467 12.3797 9.79483 11.8934 9.96521 11.4329C10.094 11.0989 10.2913 10.7956 10.5444 10.5426C10.7975 10.2895 11.1008 10.0922 11.4347 9.96338C11.8952 9.793 12.3815 9.70284 12.8725 9.69684C13.6891 9.65997 13.9339 9.65186 16.001 9.65186ZM16.001 8.25684C13.8996 8.25684 13.6349 8.26568 12.8091 8.30329C12.1665 8.31607 11.5308 8.43773 10.9289 8.6631C10.4126 8.85763 9.94493 9.16248 9.55857 9.55638C9.16432 9.94287 8.85922 10.4108 8.66456 10.9274C8.43919 11.5293 8.31753 12.1651 8.30475 12.8076C8.26788 13.6327 8.25903 13.8974 8.25903 15.9988C8.25903 18.1002 8.26788 18.3649 8.30548 19.1907C8.31827 19.8332 8.43993 20.469 8.6653 21.0708C8.85974 21.5874 9.16459 22.0553 9.55857 22.4419C9.94514 22.8359 10.4131 23.1407 10.9296 23.3352C11.5315 23.5605 12.1673 23.6822 12.8098 23.695C13.6356 23.7319 13.8992 23.7414 16.0017 23.7414C18.1042 23.7414 18.3678 23.7326 19.1936 23.695C19.8362 23.6822 20.4719 23.5605 21.0738 23.3352C21.5879 23.1359 22.0548 22.8315 22.4446 22.4415C22.8343 22.0514 23.1384 21.5844 23.3374 21.0701C23.5627 20.4682 23.6844 19.8325 23.6972 19.1899C23.7341 18.3649 23.7429 18.1002 23.7429 15.9988C23.7429 13.8974 23.7341 13.6327 23.6965 12.8069C23.6837 12.1643 23.562 11.5286 23.3366 10.9267C23.1422 10.4101 22.8373 9.94221 22.4434 9.55564C22.0568 9.16165 21.5889 8.8568 21.0723 8.66237C20.4704 8.43699 19.8347 8.31533 19.1921 8.30255C18.3671 8.26568 18.1024 8.25684 16.001 8.25684Z" fill="#EBEBEB"/>
<path d="M16.0028 12.0254C15.2165 12.0254 14.4478 12.2586 13.794 12.6954C13.1402 13.1323 12.6306 13.7532 12.3297 14.4796C12.0288 15.2061 11.9501 16.0055 12.1035 16.7767C12.2569 17.5479 12.6355 18.2563 13.1915 18.8123C13.7476 19.3683 14.456 19.7469 15.2272 19.9003C15.9984 20.0537 16.7977 19.975 17.5242 19.6741C18.2507 19.3732 18.8716 18.8636 19.3084 18.2098C19.7453 17.556 19.9784 16.7874 19.9784 16.0011C19.9784 14.9466 19.5596 13.9354 18.814 13.1898C18.0684 12.4443 17.0572 12.0254 16.0028 12.0254ZM16.0028 18.5817C15.4924 18.5817 14.9934 18.4304 14.569 18.1468C14.1447 17.8632 13.8139 17.4602 13.6186 16.9886C13.4232 16.5171 13.3721 15.9982 13.4717 15.4976C13.5713 14.997 13.8171 14.5372 14.178 14.1763C14.5389 13.8154 14.9987 13.5696 15.4993 13.47C15.9999 13.3704 16.5188 13.4215 16.9903 13.6169C17.4619 13.8122 17.8649 14.1429 18.1485 14.5673C18.4321 14.9917 18.5834 15.4907 18.5834 16.0011C18.5834 16.6855 18.3115 17.3419 17.8276 17.8259C17.3436 18.3098 16.6872 18.5817 16.0028 18.5817Z" fill="#EBEBEB"/>
<path d="M20.1346 12.7965C20.6477 12.7965 21.0636 12.3806 21.0636 11.8675C21.0636 11.3544 20.6477 10.9385 20.1346 10.9385C19.6215 10.9385 19.2056 11.3544 19.2056 11.8675C19.2056 12.3806 19.6215 12.7965 20.1346 12.7965Z" fill="#24261C"/>
</svg>
