<svg width="40" height="40" viewBox="0 0 40 40" fill="none" xmlns="http://www.w3.org/2000/svg">
<circle cx="20" cy="20" r="20" fill="white"/>
<path d="M20.0016 12.0678C22.5855 12.0678 22.8915 12.0775 23.9122 12.124C24.526 12.1315 25.1338 12.2442 25.7095 12.4572C26.1269 12.6182 26.506 12.8648 26.8224 13.1811C27.1387 13.4975 27.3854 13.8766 27.5463 14.2941C27.7593 14.8697 27.872 15.4776 27.8795 16.0913C27.9256 17.112 27.9357 17.418 27.9357 20.0019C27.9357 22.5858 27.9261 22.8917 27.8795 23.9125C27.872 24.5262 27.7593 25.1341 27.5463 25.7097C27.3854 26.1272 27.1387 26.5063 26.8224 26.8226C26.506 27.139 26.1269 27.3856 25.7095 27.5466C25.1338 27.7596 24.526 27.8723 23.9122 27.8798C22.892 27.9258 22.586 27.936 20.0016 27.936C17.4173 27.936 17.1113 27.9263 16.091 27.8798C15.4773 27.8723 14.8694 27.7596 14.2938 27.5466C13.8764 27.3856 13.4973 27.139 13.1809 26.8226C12.8645 26.5063 12.6179 26.1272 12.4569 25.7097C12.244 25.1341 12.1313 24.5262 12.1238 23.9125C12.0777 22.8917 12.0675 22.5858 12.0675 20.0019C12.0675 17.418 12.0772 17.112 12.1238 16.0913C12.1313 15.4776 12.244 14.8697 12.4569 14.2941C12.6179 13.8766 12.8645 13.4975 13.1809 13.1811C13.4973 12.8648 13.8764 12.6182 14.2938 12.4572C14.8694 12.2442 15.4773 12.1315 16.091 12.124C17.1118 12.0779 17.4178 12.0678 20.0016 12.0678ZM20.0016 10.324C17.3749 10.324 17.044 10.3351 16.0118 10.3821C15.2086 10.398 14.4139 10.5501 13.6615 10.8318C13.0162 11.075 12.4316 11.4561 11.9486 11.9484C11.4558 12.4316 11.0744 13.0164 10.8311 13.6623C10.5494 14.4146 10.3973 15.2093 10.3814 16.0125C10.3353 17.0438 10.3242 17.3747 10.3242 20.0014C10.3242 22.6282 10.3353 22.959 10.3823 23.9913C10.3983 24.7945 10.5503 25.5892 10.8321 26.3415C11.0751 26.9872 11.4562 27.5721 11.9486 28.0553C12.4319 28.5478 13.0167 28.9289 13.6625 29.1719C14.4148 29.4536 15.2095 29.6057 16.0127 29.6217C17.045 29.6678 17.3745 29.6798 20.0026 29.6798C22.6307 29.6798 22.9602 29.6687 23.9924 29.6217C24.7956 29.6057 25.5903 29.4536 26.3427 29.1719C26.9853 28.9228 27.5689 28.5423 28.0561 28.0548C28.5433 27.5673 28.9235 26.9834 29.1721 26.3406C29.4539 25.5882 29.6059 24.7936 29.6219 23.9904C29.668 22.959 29.6791 22.6282 29.6791 20.0014C29.6791 17.3747 29.668 17.0438 29.621 16.0116C29.605 15.2084 29.4529 14.4137 29.1712 13.6613C28.9282 13.0156 28.5471 12.4307 28.0546 11.9475C27.5714 11.455 26.9865 11.074 26.3408 10.8309C25.5885 10.5492 24.7938 10.3971 23.9906 10.3811C22.9592 10.3351 22.6284 10.324 20.0016 10.324Z" fill="#657838"/>
<path d="M20.004 15.0336C19.0211 15.0336 18.0603 15.325 17.2431 15.8711C16.4258 16.4172 15.7888 17.1933 15.4127 18.1014C15.0366 19.0094 14.9382 20.0087 15.1299 20.9727C15.3217 21.9367 15.795 22.8222 16.49 23.5172C17.185 24.2122 18.0705 24.6855 19.0345 24.8772C19.9985 25.069 20.9977 24.9706 21.9058 24.5944C22.8139 24.2183 23.59 23.5813 24.1361 22.7641C24.6821 21.9469 24.9736 20.986 24.9736 20.0032C24.9736 18.6851 24.45 17.4211 23.518 16.4891C22.5861 15.5571 21.322 15.0336 20.004 15.0336ZM20.004 23.229C19.366 23.229 18.7423 23.0398 18.2118 22.6853C17.6814 22.3309 17.2679 21.8271 17.0238 21.2376C16.7796 20.6482 16.7157 19.9996 16.8402 19.3738C16.9647 18.7481 17.2719 18.1733 17.723 17.7222C18.1742 17.271 18.7489 16.9638 19.3747 16.8393C20.0004 16.7149 20.649 16.7787 21.2385 17.0229C21.8279 17.2671 22.3317 17.6805 22.6862 18.211C23.0406 18.7415 23.2298 19.3651 23.2298 20.0032C23.2298 20.8587 22.89 21.6792 22.285 22.2841C21.68 22.8891 20.8595 23.229 20.004 23.229Z" fill="#657838"/>
<path d="M25.1679 15.9975C25.8092 15.9975 26.3292 15.4775 26.3292 14.8362C26.3292 14.1948 25.8092 13.6749 25.1679 13.6749C24.5265 13.6749 24.0066 14.1948 24.0066 14.8362C24.0066 15.4775 24.5265 15.9975 25.1679 15.9975Z" fill="#657838"/>
</svg>
