<svg width="27" height="28" viewBox="0 0 27 28" fill="none" xmlns="http://www.w3.org/2000/svg">
<path d="M7.90033 0.666504H19.1003C23.367 0.666504 26.8337 4.13317 26.8337 8.39984V19.5998C26.8337 21.6508 26.0189 23.6178 24.5686 25.0681C23.1183 26.5184 21.1513 27.3332 19.1003 27.3332H7.90033C3.63366 27.3332 0.166992 23.8665 0.166992 19.5998V8.39984C0.166992 6.34883 0.981752 4.38183 2.43203 2.93154C3.88231 1.48126 5.84932 0.666504 7.90033 0.666504ZM7.63366 3.33317C6.36062 3.33317 5.13972 3.83888 4.23955 4.73906C3.33937 5.63923 2.83366 6.86013 2.83366 8.13317V19.8665C2.83366 22.5198 4.98033 24.6665 7.63366 24.6665H19.367C20.64 24.6665 21.8609 24.1608 22.7611 23.2606C23.6613 22.3604 24.167 21.1395 24.167 19.8665V8.13317C24.167 5.47984 22.0203 3.33317 19.367 3.33317H7.63366ZM20.5003 5.33317C20.9424 5.33317 21.3663 5.50877 21.6788 5.82133C21.9914 6.13389 22.167 6.55781 22.167 6.99984C22.167 7.44186 21.9914 7.86579 21.6788 8.17835C21.3663 8.49091 20.9424 8.6665 20.5003 8.6665C20.0583 8.6665 19.6344 8.49091 19.3218 8.17835C19.0093 7.86579 18.8337 7.44186 18.8337 6.99984C18.8337 6.55781 19.0093 6.13389 19.3218 5.82133C19.6344 5.50877 20.0583 5.33317 20.5003 5.33317ZM13.5003 7.33317C15.2684 7.33317 16.9641 8.03555 18.2144 9.28579C19.4646 10.536 20.167 12.2317 20.167 13.9998C20.167 15.7679 19.4646 17.4636 18.2144 18.7139C16.9641 19.9641 15.2684 20.6665 13.5003 20.6665C11.7322 20.6665 10.0365 19.9641 8.78628 18.7139C7.53604 17.4636 6.83366 15.7679 6.83366 13.9998C6.83366 12.2317 7.53604 10.536 8.78628 9.28579C10.0365 8.03555 11.7322 7.33317 13.5003 7.33317ZM13.5003 9.99984C12.4395 9.99984 11.422 10.4213 10.6719 11.1714C9.92175 11.9216 9.50033 12.939 9.50033 13.9998C9.50033 15.0607 9.92175 16.0781 10.6719 16.8283C11.422 17.5784 12.4395 17.9998 13.5003 17.9998C14.5612 17.9998 15.5786 17.5784 16.3288 16.8283C17.0789 16.0781 17.5003 15.0607 17.5003 13.9998C17.5003 12.939 17.0789 11.9216 16.3288 11.1714C15.5786 10.4213 14.5612 9.99984 13.5003 9.99984Z" fill="#F3E7DB"/>
</svg>
