<svg width="25" height="24" viewBox="0 0 25 24" fill="none" xmlns="http://www.w3.org/2000/svg">
<path d="M12.3334 2.16218C15.5373 2.16218 15.9167 2.17418 17.1823 2.23189C17.9433 2.24121 18.697 2.38094 19.4108 2.64502C19.9284 2.84463 20.3985 3.15042 20.7907 3.54269C21.183 3.93496 21.4888 4.40502 21.6884 4.92262C21.9525 5.63637 22.0922 6.39011 22.1015 7.15109C22.1587 8.41674 22.1712 8.79615 22.1712 12C22.1712 15.2038 22.1592 15.5833 22.1015 16.8489C22.0922 17.6099 21.9525 18.3636 21.6884 19.0774C21.4888 19.595 21.183 20.065 20.7907 20.4573C20.3985 20.8496 19.9284 21.1554 19.4108 21.355C18.697 21.6191 17.9433 21.7588 17.1823 21.7681C15.9172 21.8252 15.5378 21.8378 12.3334 21.8378C9.12899 21.8378 8.74958 21.8258 7.4845 21.7681C6.72353 21.7588 5.96978 21.6191 5.25604 21.355C4.73844 21.1554 4.26837 20.8496 3.8761 20.4573C3.48383 20.065 3.17804 19.595 2.97843 19.0774C2.71435 18.3636 2.57462 17.6099 2.56531 16.8489C2.50817 15.5833 2.4956 15.2038 2.4956 12C2.4956 8.79615 2.5076 8.41674 2.56531 7.15109C2.57462 6.39011 2.71435 5.63637 2.97843 4.92262C3.17804 4.40502 3.48383 3.93496 3.8761 3.54269C4.26837 3.15042 4.73844 2.84463 5.25604 2.64502C5.96978 2.38094 6.72353 2.24121 7.4845 2.23189C8.75016 2.17475 9.12957 2.16218 12.3334 2.16218ZM12.3334 0C9.07643 0 8.66616 0.0137136 7.38622 0.0719965C6.3903 0.0918058 5.40494 0.280376 4.47207 0.629684C3.67182 0.931193 2.947 1.40368 2.34817 2.01419C1.73712 2.61323 1.26422 3.33847 0.962526 4.13923C0.613217 5.0721 0.424647 6.05745 0.404838 7.05338C0.347698 8.33217 0.333984 8.74244 0.333984 11.9994C0.333984 15.2564 0.347698 15.6667 0.405981 16.9466C0.42579 17.9425 0.61436 18.9279 0.963669 19.8608C1.26503 20.6614 1.73753 21.3867 2.34817 21.9858C2.94733 22.5965 3.67256 23.069 4.47322 23.3703C5.40609 23.7196 6.39144 23.9082 7.38736 23.928C8.6673 23.9851 9.07586 24 12.3346 24C15.5933 24 16.0018 23.9863 17.2817 23.928C18.2777 23.9082 19.263 23.7196 20.1959 23.3703C20.9928 23.0614 21.7164 22.5896 22.3205 21.9851C22.9246 21.3806 23.3959 20.6567 23.7043 19.8596C24.0536 18.9268 24.2422 17.9414 24.262 16.9455C24.3191 15.6667 24.3328 15.2564 24.3328 11.9994C24.3328 8.74244 24.3191 8.33217 24.2608 7.05224C24.241 6.05631 24.0525 5.07096 23.7032 4.13809C23.4018 3.33743 22.9293 2.6122 22.3187 2.01305C21.7195 1.4024 20.9943 0.929903 20.1936 0.628541C19.2607 0.279233 18.2754 0.0906631 17.2795 0.0708538C16.0007 0.0137137 15.5904 0 12.3334 0Z" fill="#657838"/>
<path d="M12.3358 5.84131C11.1171 5.84131 9.92574 6.2027 8.9124 6.87979C7.89907 7.55688 7.10927 8.51925 6.64288 9.64521C6.1765 10.7712 6.05447 12.0101 6.29223 13.2054C6.52999 14.4008 7.11687 15.4987 7.97864 16.3605C8.84041 17.2223 9.93837 17.8091 11.1337 18.0469C12.329 18.2847 13.568 18.1626 14.6939 17.6962C15.8199 17.2299 16.7822 16.4401 17.4593 15.4267C18.1364 14.4134 18.4978 13.222 18.4978 12.0033C18.4978 10.369 17.8486 8.80171 16.693 7.64612C15.5374 6.49052 13.9701 5.84131 12.3358 5.84131ZM12.3358 16.0031C11.5447 16.0031 10.7714 15.7685 10.1136 15.329C9.45588 14.8895 8.94322 14.2648 8.64048 13.534C8.33774 12.8031 8.25854 11.9989 8.41287 11.223C8.5672 10.4471 8.94815 9.73439 9.50753 9.17501C10.0669 8.61563 10.7796 8.23468 11.5555 8.08035C12.3314 7.92601 13.1356 8.00522 13.8665 8.30796C14.5974 8.61069 15.222 9.12336 15.6615 9.78113C16.101 10.4389 16.3356 11.2122 16.3356 12.0033C16.3356 13.0641 15.9142 14.0815 15.1641 14.8316C14.414 15.5817 13.3966 16.0031 12.3358 16.0031Z" fill="#657838"/>
<path d="M18.7407 7.03587C19.536 7.03587 20.1806 6.39119 20.1806 5.59594C20.1806 4.80068 19.536 4.15601 18.7407 4.15601C17.9455 4.15601 17.3008 4.80068 17.3008 5.59594C17.3008 6.39119 17.9455 7.03587 18.7407 7.03587Z" fill="#657838"/>
</svg>
