<svg width="141" height="30" viewBox="0 0 141 30" fill="none" xmlns="http://www.w3.org/2000/svg">
<path d="M31.5831 20.7264C25.3602 20.7264 21.25 16.2705 21.25 10.6238C21.25 7.15355 22.7987 4.25296 25.4267 2.34586C27.0817 1.21588 29.1697 0.559603 31.5831 0.559603C37.7292 0.559603 41.7625 4.97709 41.7625 10.6238C41.7625 16.2705 37.6907 20.7264 31.5831 20.7264ZM31.5831 16.501C35.0402 16.501 37.345 13.8505 37.345 10.6622C37.345 7.39711 35.0402 4.82344 31.5831 4.82344C28.0107 4.82344 25.7059 7.39711 25.7059 10.6622C25.7059 13.8889 28.0491 16.501 31.5831 16.501Z" fill="white"/>
<path fill-rule="evenodd" clip-rule="evenodd" d="M14.1315 6.51363C13.1952 5.48944 11.7891 4.82346 10.1026 4.82346C6.60703 4.82346 4.41749 7.43554 4.41749 10.6622C4.41749 13.8505 6.60703 16.501 10.1026 16.501C12.5226 16.501 16.0182 15.0797 16.6712 13.0438H19.7827C18.9376 17.4613 15.1731 20.7264 10.0642 20.7264C3.95653 20.7264 0 16.2705 0 10.6238C0 4.97711 3.95653 0.55962 10.0642 0.55962C12.8977 0.55962 15.3176 1.55216 17.0553 3.1899L14.1315 6.51363Z" fill="white"/>
<path d="M14.4408 19.8042C14.4408 19.8042 9.09703 16.501 10.0618 16.5007C11.0266 16.5005 14.0466 15.8704 17.8545 11.2304C19.0716 9.74733 19.2817 9.62742 20.8707 7.4959C22.4596 5.36438 23.0813 4.60793 23.6495 3.96869C23.6495 3.96869 23.948 7.39758 23.7368 9.04854C23.4351 11.4057 22.6786 12.0022 22.6786 12.0022C22.6786 12.0022 20.8246 14.7265 19.2809 16.2702C17.7372 17.8139 15.8237 19.1896 14.4408 19.8042Z" fill="white"/>
<path d="M131.657 0.474515C136.502 0.474515 139.628 3.81298 139.628 9.31164V20.5446H135.134V10.0186C135.134 6.95508 133.298 4.91272 130.524 4.91272C127.554 4.91272 125.288 7.23001 125.288 10.6078V20.5446H120.795V1.02438H125.21V3.53805H125.366C126.773 1.6528 129.039 0.474515 131.657 0.474515Z" fill="white"/>
<path d="M108.223 20.8196C101.884 20.8196 97.6973 16.2635 97.6973 10.49C97.6973 4.71636 101.845 0.199611 108.223 0.199611C114.484 0.199611 118.592 4.71636 118.592 10.49C118.592 16.2635 114.444 20.8196 108.223 20.8196ZM108.223 16.4992C111.745 16.4992 114.092 13.7891 114.092 10.5292C114.092 7.19076 111.745 4.55926 108.223 4.55926C104.584 4.55926 102.236 7.19076 102.236 10.5292C102.236 13.8284 104.623 16.4992 108.223 16.4992Z" fill="white"/>
<path d="M85.5413 20.8196C79.2024 20.8196 75.0156 16.2635 75.0156 10.49C75.0156 4.71636 79.1633 0.199611 85.5413 0.199611C91.802 0.199611 95.9105 4.71636 95.9105 10.49C95.9105 16.2635 91.7628 20.8196 85.5413 20.8196ZM85.5413 16.4992C89.0629 16.4992 91.4107 13.7891 91.4107 10.5292C91.4107 7.19076 89.0629 4.55926 85.5413 4.55926C81.9023 4.55926 79.5546 7.19076 79.5546 10.5292C79.5546 13.8284 81.9415 16.4992 85.5413 16.4992Z" fill="white"/>
<path d="M65.9004 0.61187C70.2123 0.61187 73.2306 3.54314 73.2306 8.70217V20.5445H68.7227V9.32751C68.7227 6.47441 67.194 4.95015 64.8813 4.95015C62.8821 4.95015 60.6086 6.43532 60.6086 10.2655V20.5445H56.1008V9.36659C56.1008 6.51349 54.5328 4.91107 52.2201 4.98923C49.6722 5.02832 47.9082 7.29516 47.9082 10.5391V20.5445H43.4004V1.11996H47.7514V3.77764H47.869C49.0842 1.90163 51.0441 0.61187 53.5137 0.61187C56.2576 0.61187 58.2959 1.9798 59.3935 4.09031H59.4719C60.8438 1.94071 63.0781 0.61187 65.9004 0.61187Z" fill="white"/>
<path d="M1.8738 27.8004V23.9315H2.75272L3.74152 26.6154L4.73032 23.9315H5.60925V27.8004H5.04422V24.6064L3.95341 27.5414H3.52179L2.43882 24.63V27.8004H1.8738ZM9.07696 23.8295C9.38563 23.8295 9.66291 23.8871 9.9088 24.0022C10.1599 24.112 10.3718 24.269 10.5445 24.473C10.7223 24.6718 10.8531 24.9072 10.9368 25.1793C11.0258 25.4513 11.0624 25.7496 11.0467 26.0739H7.71933C7.72979 26.2518 7.77164 26.4192 7.84489 26.5762C7.91813 26.7279 8.01492 26.8613 8.13525 26.9764C8.26081 27.0863 8.4073 27.1752 8.57471 27.2432C8.74213 27.306 8.92262 27.3374 9.1162 27.3374C9.40394 27.3374 9.65768 27.2694 9.87741 27.1333C10.1024 26.9973 10.2619 26.8194 10.3561 26.5997H10.9761C10.8453 27.0025 10.6099 27.3217 10.2698 27.5571C9.92973 27.7873 9.53473 27.9024 9.08481 27.9024C8.78137 27.9024 8.5067 27.8501 8.26081 27.7455C8.02015 27.6356 7.8135 27.4891 7.64085 27.306C7.4682 27.1176 7.33479 26.9005 7.24062 26.6546C7.15168 26.4087 7.10721 26.1472 7.10721 25.8699C7.10721 25.5874 7.1543 25.3232 7.24847 25.0773C7.34787 24.8314 7.4839 24.6169 7.65655 24.4338C7.82919 24.2454 8.03585 24.0989 8.27651 23.9943C8.51716 23.8844 8.78398 23.8295 9.07696 23.8295ZM10.4189 25.5481C10.3927 25.3807 10.3404 25.2264 10.2619 25.0851C10.1887 24.9439 10.0919 24.8235 9.97158 24.7241C9.85649 24.6195 9.72046 24.5384 9.56351 24.4809C9.41179 24.4233 9.24437 24.3945 9.06126 24.3945C8.88339 24.3945 8.71859 24.4259 8.56687 24.4887C8.41515 24.5463 8.28174 24.6273 8.16664 24.732C8.05154 24.8314 7.95737 24.9517 7.88413 25.093C7.81088 25.2342 7.76118 25.3859 7.73502 25.5481H10.4189ZM15.7465 25.3127C15.6628 25.0511 15.5084 24.834 15.2835 24.6614C15.0585 24.4835 14.7838 24.3945 14.4595 24.3945C14.2502 24.3945 14.0593 24.4338 13.8866 24.5122C13.714 24.5855 13.5649 24.6901 13.4393 24.8262C13.3137 24.9569 13.2169 25.1113 13.1489 25.2892C13.0809 25.467 13.0469 25.658 13.0469 25.862C13.0469 26.0661 13.0809 26.257 13.1489 26.4349C13.2169 26.6128 13.3137 26.7697 13.4393 26.9058C13.5649 27.0366 13.714 27.1412 13.8866 27.2197C14.0593 27.2981 14.2502 27.3374 14.4595 27.3374C14.7786 27.3374 15.0507 27.2511 15.2756 27.0784C15.5058 26.9005 15.6628 26.673 15.7465 26.3957H16.3664C16.3194 26.6102 16.2383 26.8116 16.1232 26.9999C16.0133 27.183 15.8747 27.3426 15.7072 27.4786C15.5398 27.6094 15.3489 27.7141 15.1344 27.7925C14.9251 27.8658 14.6975 27.9024 14.4516 27.9024C14.1587 27.9024 13.8892 27.8501 13.6433 27.7455C13.3974 27.6408 13.1856 27.4969 13.0077 27.3138C12.835 27.1255 12.699 26.9084 12.5996 26.6625C12.5054 26.4114 12.4583 26.1445 12.4583 25.862C12.4583 25.5795 12.5054 25.3153 12.5996 25.0694C12.699 24.8183 12.835 24.6012 13.0077 24.4181C13.1856 24.235 13.3974 24.0911 13.6433 23.9865C13.8892 23.8818 14.1587 23.8295 14.4516 23.8295C14.6975 23.8295 14.9251 23.8661 15.1344 23.9394C15.3489 24.0126 15.5398 24.1173 15.7072 24.2533C15.8747 24.3841 16.0133 24.541 16.1232 24.7241C16.2383 24.902 16.3194 25.0982 16.3664 25.3127H15.7465ZM21.647 24.4966H20.046V27.8004H19.4575V24.4966H17.8487V23.9315H21.647V24.4966ZM25.0911 27.9024C24.7877 27.9024 24.5104 27.8501 24.2593 27.7455C24.0134 27.6356 23.8015 27.4891 23.6236 27.306C23.4457 27.1176 23.3097 26.9005 23.2155 26.6546C23.1214 26.4087 23.0743 26.1445 23.0743 25.862C23.0743 25.5795 23.1214 25.3153 23.2155 25.0694C23.3097 24.8235 23.4457 24.609 23.6236 24.4259C23.8015 24.2376 24.0134 24.0911 24.2593 23.9865C24.5104 23.8818 24.7877 23.8295 25.0911 23.8295C25.3946 23.8295 25.6692 23.8818 25.9151 23.9865C26.161 24.0911 26.3703 24.2376 26.5429 24.4259C26.7208 24.609 26.8568 24.8235 26.951 25.0694C27.0452 25.3153 27.0923 25.5795 27.0923 25.862C27.0923 26.1445 27.0452 26.4087 26.951 26.6546C26.8568 26.9005 26.7208 27.1176 26.5429 27.306C26.3703 27.4891 26.161 27.6356 25.9151 27.7455C25.6692 27.8501 25.3946 27.9024 25.0911 27.9024ZM25.0911 27.3374C25.3056 27.3374 25.4992 27.2981 25.6718 27.2197C25.8497 27.1412 25.9988 27.0366 26.1192 26.9058C26.2447 26.7697 26.3389 26.6128 26.4017 26.4349C26.4697 26.2518 26.5037 26.0608 26.5037 25.862C26.5037 25.658 26.4697 25.467 26.4017 25.2892C26.3389 25.1113 26.2447 24.9569 26.1192 24.8262C25.9988 24.6901 25.8497 24.5855 25.6718 24.5122C25.4992 24.4338 25.3056 24.3945 25.0911 24.3945C24.8714 24.3945 24.6726 24.4338 24.4947 24.5122C24.3221 24.5855 24.173 24.6901 24.0474 24.8262C23.9271 24.9569 23.8329 25.1113 23.7649 25.2892C23.7021 25.467 23.6707 25.658 23.6707 25.862C23.6707 26.0661 23.7021 26.257 23.7649 26.4349C23.8329 26.6128 23.9271 26.7697 24.0474 26.9058C24.173 27.0366 24.3221 27.1412 24.4947 27.2197C24.6726 27.2981 24.8714 27.3374 25.0911 27.3374ZM37.0882 25.3127C37.0045 25.0511 36.8502 24.834 36.6252 24.6614C36.4003 24.4835 36.1256 24.3945 35.8012 24.3945C35.592 24.3945 35.401 24.4338 35.2284 24.5122C35.0557 24.5855 34.9066 24.6901 34.7811 24.8262C34.6555 24.9569 34.5587 25.1113 34.4907 25.2892C34.4227 25.467 34.3887 25.658 34.3887 25.862C34.3887 26.0661 34.4227 26.257 34.4907 26.4349C34.5587 26.6128 34.6555 26.7697 34.7811 26.9058C34.9066 27.0366 35.0557 27.1412 35.2284 27.2197C35.401 27.2981 35.592 27.3374 35.8012 27.3374C36.1204 27.3374 36.3924 27.2511 36.6174 27.0784C36.8476 26.9005 37.0045 26.673 37.0882 26.3957H37.7082C37.6611 26.6102 37.58 26.8116 37.4649 26.9999C37.3551 27.183 37.2164 27.3426 37.049 27.4786C36.8816 27.6094 36.6906 27.7141 36.4761 27.7925C36.2669 27.8658 36.0393 27.9024 35.7934 27.9024C35.5004 27.9024 35.231 27.8501 34.9851 27.7455C34.7392 27.6408 34.5273 27.4969 34.3494 27.3138C34.1768 27.1255 34.0408 26.9084 33.9414 26.6625C33.8472 26.4114 33.8001 26.1445 33.8001 25.862C33.8001 25.5795 33.8472 25.3153 33.9414 25.0694C34.0408 24.8183 34.1768 24.6012 34.3494 24.4181C34.5273 24.235 34.7392 24.0911 34.9851 23.9865C35.231 23.8818 35.5004 23.8295 35.7934 23.8295C36.0393 23.8295 36.2669 23.8661 36.4761 23.9394C36.6906 24.0126 36.8816 24.1173 37.049 24.2533C37.2164 24.3841 37.3551 24.541 37.4649 24.7241C37.58 24.902 37.6611 25.0982 37.7082 25.3127H37.0882ZM39.9281 23.9315V26.9607L42.251 23.9315H42.8396V27.8004H42.251V24.7712L39.9281 27.8004H39.3396V23.9315H39.9281ZM48.175 27.8004H47.5865V24.4966H45.7815C45.7815 24.6483 45.7815 24.8131 45.7815 24.991C45.7815 25.1636 45.7789 25.3389 45.7737 25.5167C45.7737 25.6946 45.7711 25.8673 45.7658 26.0347C45.7658 26.2021 45.7606 26.3538 45.7501 26.4898C45.7292 26.8194 45.669 27.0758 45.5696 27.2589C45.4702 27.4368 45.3525 27.5676 45.2165 27.6513C45.0857 27.735 44.9471 27.7847 44.8006 27.8004C44.6593 27.8161 44.5364 27.8239 44.4317 27.8239H44.3611V27.2275H44.4082C44.4762 27.2275 44.5495 27.2249 44.6279 27.2197C44.7116 27.2092 44.7901 27.1804 44.8634 27.1333C44.9418 27.0863 45.0072 27.013 45.0595 26.9136C45.1171 26.8142 45.1537 26.673 45.1694 26.4898C45.1799 26.4166 45.1851 26.2937 45.1851 26.121C45.1903 25.9484 45.193 25.7443 45.193 25.5089C45.1982 25.2735 45.2008 25.0197 45.2008 24.7477C45.2008 24.4756 45.2008 24.2036 45.2008 23.9315H48.175V27.8004ZM50.4028 25.8463V27.2354H51.3995C51.5878 27.2301 51.7474 27.1621 51.8782 27.0313C52.009 26.8953 52.0744 26.7279 52.0744 26.5291C52.0744 26.4349 52.0561 26.346 52.0194 26.2623C51.9828 26.1786 51.9331 26.1079 51.8703 26.0504C51.8128 25.9876 51.7422 25.9379 51.6584 25.9013C51.58 25.8646 51.4936 25.8463 51.3995 25.8463H50.4028ZM50.4028 23.9315V25.2735H51.3995C51.5774 25.2735 51.7422 25.3075 51.8939 25.3755C52.0508 25.4435 52.1842 25.5351 52.2941 25.6501C52.4092 25.76 52.4981 25.8908 52.5609 26.0425C52.6289 26.1942 52.6629 26.3564 52.6629 26.5291C52.6629 26.707 52.6289 26.8744 52.5609 27.0313C52.4981 27.183 52.4092 27.3165 52.2941 27.4315C52.179 27.5466 52.043 27.6382 51.886 27.7062C51.7343 27.769 51.5721 27.8004 51.3995 27.8004H49.8143V23.9315H50.4028ZM53.7067 23.9315V27.8004H53.1181V23.9315H53.7067ZM63.8753 27.2354H64.4874V28.8284H63.9067V27.8004H60.956V28.8284H60.3753V27.2354H60.4459C60.5034 27.2354 60.5636 27.2327 60.6264 27.2275C60.6944 27.217 60.7572 27.1909 60.8147 27.149C60.8775 27.102 60.9325 27.0313 60.9795 26.9372C61.0266 26.8377 61.058 26.6991 61.0737 26.5212C61.0842 26.448 61.0894 26.312 61.0894 26.1132C61.0946 25.9091 61.0973 25.6815 61.0973 25.4304C61.1025 25.1741 61.1051 24.9125 61.1051 24.6457C61.1051 24.3788 61.1051 24.1408 61.1051 23.9315H63.8753V27.2354ZM63.2867 27.2354V24.4966H61.6701C61.6701 24.643 61.6701 24.8026 61.6701 24.9753C61.6701 25.1479 61.6675 25.3205 61.6623 25.4932C61.6623 25.6606 61.6597 25.8254 61.6544 25.9876C61.6492 26.1445 61.644 26.2858 61.6387 26.4114C61.6283 26.5945 61.6073 26.754 61.576 26.8901C61.5446 27.0261 61.5053 27.1412 61.4582 27.2354H63.2867ZM69.5168 27.8004H68.9282V24.4966H67.1233C67.1233 24.6483 67.1233 24.8131 67.1233 24.991C67.1233 25.1636 67.1207 25.3389 67.1154 25.5167C67.1154 25.6946 67.1128 25.8673 67.1076 26.0347C67.1076 26.2021 67.1024 26.3538 67.0919 26.4898C67.071 26.8194 67.0108 27.0758 66.9114 27.2589C66.812 27.4368 66.6943 27.5676 66.5583 27.6513C66.4275 27.735 66.2888 27.7847 66.1423 27.8004C66.0011 27.8161 65.8781 27.8239 65.7735 27.8239H65.7029V27.2275H65.75C65.818 27.2275 65.8912 27.2249 65.9697 27.2197C66.0534 27.2092 66.1319 27.1804 66.2051 27.1333C66.2836 27.0863 66.349 27.013 66.4013 26.9136C66.4589 26.8142 66.4955 26.673 66.5112 26.4898C66.5216 26.4166 66.5269 26.2937 66.5269 26.121C66.5321 25.9484 66.5347 25.7443 66.5347 25.5089C66.5399 25.2735 66.5426 25.0197 66.5426 24.7477C66.5426 24.4756 66.5426 24.2036 66.5426 23.9315H69.5168V27.8004ZM74.1852 27.8004V26.3643H72.3802C72.2494 26.3643 72.1448 26.4009 72.0663 26.4741C71.9931 26.5474 71.9565 26.6468 71.9565 26.7724V27.8004H71.3679V26.6939C71.3679 26.5055 71.4045 26.3486 71.4778 26.223C71.5562 26.0975 71.6766 26.0085 71.8388 25.9562V25.9327C71.687 25.849 71.5693 25.7339 71.4856 25.5874C71.4019 25.4356 71.3601 25.263 71.3601 25.0694C71.3601 24.9177 71.3888 24.7738 71.4464 24.6378C71.5039 24.5018 71.585 24.3815 71.6897 24.2768C71.7995 24.1722 71.9329 24.0885 72.0899 24.0257C72.2468 23.9629 72.4247 23.9315 72.6235 23.9315H74.7738V27.8004H74.1852ZM71.9486 25.1479C71.9486 25.331 72.014 25.4853 72.1448 25.6109C72.2808 25.7365 72.4482 25.7993 72.6471 25.7993H74.1852V24.4966H72.6235C72.4142 24.4966 72.2494 24.5619 72.1291 24.6927C72.0088 24.8235 71.9486 24.9753 71.9486 25.1479ZM84.0948 28.5224C83.9954 28.7944 83.8542 29.0037 83.6711 29.1502C83.4932 29.2967 83.2525 29.3699 82.9491 29.3699H82.0623V28.7813H82.9412C83.1087 28.7813 83.2395 28.7473 83.3336 28.6793C83.4278 28.6113 83.5063 28.4988 83.5691 28.3419L83.6318 28.1771L81.7563 23.9315H82.4076L83.9143 27.3845H83.93L85.1857 23.9315H85.7899L84.0948 28.5224ZM90.5525 27.2354H91.1646V28.8284H90.5839V27.8004H87.6332V28.8284H87.0525V27.2354H87.1231C87.1806 27.2354 87.2408 27.2327 87.3036 27.2275C87.3716 27.217 87.4344 27.1909 87.4919 27.149C87.5547 27.102 87.6096 27.0313 87.6567 26.9372C87.7038 26.8377 87.7352 26.6991 87.7509 26.5212C87.7614 26.448 87.7666 26.312 87.7666 26.1132C87.7718 25.9091 87.7744 25.6815 87.7744 25.4304C87.7797 25.1741 87.7823 24.9125 87.7823 24.6457C87.7823 24.3788 87.7823 24.1408 87.7823 23.9315H90.5525V27.2354ZM89.9639 27.2354V24.4966H88.3473C88.3473 24.643 88.3473 24.8026 88.3473 24.9753C88.3473 25.1479 88.3447 25.3205 88.3395 25.4932C88.3395 25.6606 88.3369 25.8254 88.3316 25.9876C88.3264 26.1445 88.3212 26.2858 88.3159 26.4114C88.3055 26.5945 88.2845 26.754 88.2531 26.8901C88.2218 27.0261 88.1825 27.1412 88.1354 27.2354H89.9639ZM92.3487 25.862C92.3487 25.5691 92.3957 25.2996 92.4899 25.0537C92.5841 24.8026 92.7123 24.5881 92.8744 24.4102C93.0419 24.2271 93.2354 24.0859 93.4552 23.9865C93.6749 23.8818 93.9103 23.8295 94.1615 23.8295C94.4911 23.8295 94.7788 23.9028 95.0247 24.0492C95.2706 24.1905 95.4615 24.3815 95.5976 24.6221H95.6133V23.9315H96.194V27.8004H95.6133V27.0784H95.5976C95.4354 27.3662 95.2261 27.5754 94.9698 27.7062C94.7186 27.837 94.4466 27.9024 94.1536 27.9024C93.9077 27.9024 93.6749 27.8527 93.4552 27.7533C93.2354 27.6487 93.0419 27.5074 92.8744 27.3295C92.7123 27.1464 92.5841 26.9293 92.4899 26.6782C92.3957 26.4271 92.3487 26.155 92.3487 25.862ZM94.2635 27.3374C94.4675 27.3374 94.6532 27.2981 94.8207 27.2197C94.9881 27.1412 95.1293 27.0366 95.2444 26.9058C95.3647 26.7697 95.4563 26.6128 95.5191 26.4349C95.5819 26.257 95.6133 26.0661 95.6133 25.862C95.6133 25.658 95.5819 25.467 95.5191 25.2892C95.4563 25.1113 95.3647 24.9569 95.2444 24.8262C95.1293 24.6901 94.9881 24.5829 94.8207 24.5044C94.6532 24.4259 94.4675 24.3867 94.2635 24.3867C94.0542 24.3867 93.8685 24.4259 93.7063 24.5044C93.5441 24.5829 93.4055 24.6901 93.2904 24.8262C93.1805 24.9569 93.0942 25.1113 93.0314 25.2892C92.9739 25.467 92.9451 25.658 92.9451 25.862C92.9451 26.0661 92.9739 26.257 93.0314 26.4349C93.089 26.6128 93.1727 26.7697 93.2825 26.9058C93.3976 27.0366 93.5363 27.1412 93.6984 27.2197C93.8659 27.2981 94.0542 27.3374 94.2635 27.3374ZM101.529 27.8004H100.941V24.4966H99.1359C99.1359 24.6483 99.1359 24.8131 99.1359 24.991C99.1359 25.1636 99.1333 25.3389 99.1281 25.5167C99.1281 25.6946 99.1254 25.8673 99.1202 26.0347C99.1202 26.2021 99.115 26.3538 99.1045 26.4898C99.0836 26.8194 99.0234 27.0758 98.924 27.2589C98.8246 27.4368 98.7069 27.5676 98.5709 27.6513C98.4401 27.735 98.3014 27.7847 98.155 27.8004C98.0137 27.8161 97.8908 27.8239 97.7861 27.8239H97.7155V27.2275H97.7626C97.8306 27.2275 97.9038 27.2249 97.9823 27.2197C98.066 27.2092 98.1445 27.1804 98.2177 27.1333C98.2962 27.0863 98.3616 27.013 98.4139 26.9136C98.4715 26.8142 98.5081 26.673 98.5238 26.4898C98.5343 26.4166 98.5395 26.2937 98.5395 26.121C98.5447 25.9484 98.5473 25.7443 98.5473 25.5089C98.5526 25.2735 98.5552 25.0197 98.5552 24.7477C98.5552 24.4756 98.5552 24.2036 98.5552 23.9315H101.529V27.8004ZM105.115 23.8295C105.424 23.8295 105.701 23.8871 105.947 24.0022C106.198 24.112 106.41 24.269 106.582 24.473C106.76 24.6718 106.891 24.9072 106.975 25.1793C107.064 25.4513 107.1 25.7496 107.085 26.0739H103.757C103.768 26.2518 103.81 26.4192 103.883 26.5762C103.956 26.7279 104.053 26.8613 104.173 26.9764C104.299 27.0863 104.445 27.1752 104.613 27.2432C104.78 27.306 104.961 27.3374 105.154 27.3374C105.442 27.3374 105.696 27.2694 105.915 27.1333C106.14 26.9973 106.3 26.8194 106.394 26.5997H107.014C106.883 27.0025 106.648 27.3217 106.308 27.5571C105.968 27.7873 105.573 27.9024 105.123 27.9024C104.819 27.9024 104.545 27.8501 104.299 27.7455C104.058 27.6356 103.851 27.4891 103.679 27.306C103.506 27.1176 103.373 26.9005 103.279 26.6546C103.19 26.4087 103.145 26.1472 103.145 25.8699C103.145 25.5874 103.192 25.3232 103.286 25.0773C103.386 24.8314 103.522 24.6169 103.694 24.4338C103.867 24.2454 104.074 24.0989 104.314 23.9943C104.555 23.8844 104.822 23.8295 105.115 23.8295ZM104.722 23.2645H104.15V22.1501H104.722V23.2645ZM106.104 23.2645H105.531V22.1501H106.104V23.2645ZM106.457 25.5481C106.431 25.3807 106.378 25.2264 106.3 25.0851C106.227 24.9439 106.13 24.8235 106.009 24.7241C105.894 24.6195 105.758 24.5384 105.601 24.4809C105.45 24.4233 105.282 24.3945 105.099 24.3945C104.921 24.3945 104.756 24.4259 104.605 24.4887C104.453 24.5463 104.32 24.6273 104.205 24.732C104.089 24.8314 103.995 24.9517 103.922 25.093C103.849 25.2342 103.799 25.3859 103.773 25.5481H106.457ZM109.289 23.9315V25.5167H111.612V23.9315H112.2V27.8004H111.612V26.0818H109.289V27.8004H108.7V23.9315H109.289ZM113.855 23.9315H114.428V27.2354H115.385V23.9315H115.958V27.2354H116.916V23.9315H117.489V27.2354H118.007V28.8284H117.434V27.8004H113.855V23.9315ZM119.96 23.9315V26.9607L122.283 23.9315H122.871V27.8004H122.283V24.7712L119.96 27.8004H119.371V23.9315H119.96ZM125.295 23.9315V25.5167H126.606L127.595 23.9315H128.238L127.265 25.5167H127.32C127.602 25.5167 127.817 25.5926 127.963 25.7443C128.115 25.896 128.191 26.121 128.191 26.4192V27.8004H127.602V26.4977C127.602 26.3617 127.566 26.257 127.492 26.1838C127.424 26.1105 127.328 26.0739 127.202 26.0739H125.295V27.8004H124.707V23.9315H125.295ZM131.8 27.9024C131.496 27.9024 131.219 27.8501 130.968 27.7455C130.722 27.6356 130.51 27.4891 130.332 27.306C130.155 27.1176 130.018 26.9005 129.924 26.6546C129.83 26.4087 129.783 26.1445 129.783 25.862C129.783 25.5795 129.83 25.3153 129.924 25.0694C130.018 24.8235 130.155 24.609 130.332 24.4259C130.51 24.2376 130.722 24.0911 130.968 23.9865C131.219 23.8818 131.496 23.8295 131.8 23.8295C132.103 23.8295 132.378 23.8818 132.624 23.9865C132.87 24.0911 133.079 24.2376 133.252 24.4259C133.43 24.609 133.566 24.8235 133.66 25.0694C133.754 25.3153 133.801 25.5795 133.801 25.862C133.801 26.1445 133.754 26.4087 133.66 26.6546C133.566 26.9005 133.43 27.1176 133.252 27.306C133.079 27.4891 132.87 27.6356 132.624 27.7455C132.378 27.8501 132.103 27.9024 131.8 27.9024ZM131.8 27.3374C132.014 27.3374 132.208 27.2981 132.381 27.2197C132.558 27.1412 132.708 27.0366 132.828 26.9058C132.953 26.7697 133.048 26.6128 133.11 26.4349C133.178 26.2518 133.212 26.0608 133.212 25.862C133.212 25.658 133.178 25.467 133.11 25.2892C133.048 25.1113 132.953 24.9569 132.828 24.8262C132.708 24.6901 132.558 24.5855 132.381 24.5122C132.208 24.4338 132.014 24.3945 131.8 24.3945C131.58 24.3945 131.381 24.4338 131.203 24.5122C131.031 24.5855 130.882 24.6901 130.756 24.8262C130.636 24.9569 130.542 25.1113 130.474 25.2892C130.411 25.467 130.379 25.658 130.379 25.862C130.379 26.0661 130.411 26.257 130.474 26.4349C130.542 26.6128 130.636 26.7697 130.756 26.9058C130.882 27.0366 131.031 27.1412 131.203 27.2197C131.381 27.2981 131.58 27.3374 131.8 27.3374ZM135.456 23.9315H137.7C137.878 23.9315 138.035 23.9603 138.171 24.0179C138.312 24.0702 138.43 24.1434 138.524 24.2376C138.624 24.3265 138.697 24.4338 138.744 24.5593C138.796 24.6797 138.823 24.8078 138.823 24.9439C138.823 25.1113 138.783 25.2682 138.705 25.4147C138.632 25.5612 138.511 25.6789 138.344 25.7679V25.7914C138.558 25.8699 138.718 25.9954 138.823 26.1681C138.932 26.3355 138.987 26.5186 138.987 26.7174C138.987 26.8587 138.961 26.9947 138.909 27.1255C138.857 27.2563 138.781 27.3714 138.681 27.4708C138.582 27.5702 138.459 27.6513 138.312 27.7141C138.171 27.7716 138.012 27.8004 137.834 27.8004H135.456V23.9315ZM137.802 27.2354C137.98 27.2354 138.122 27.1804 138.226 27.0706C138.336 26.9555 138.391 26.8247 138.391 26.6782C138.391 26.5265 138.336 26.3983 138.226 26.2937C138.116 26.1838 137.967 26.1289 137.779 26.1289H136.045V27.2354H137.802ZM137.653 25.5638C137.836 25.5638 137.978 25.5115 138.077 25.4069C138.182 25.297 138.234 25.1688 138.234 25.0223C138.234 24.8811 138.184 24.7581 138.085 24.6535C137.985 24.5489 137.849 24.4966 137.677 24.4966H136.045V25.5638H137.653Z" fill="white"/>
</svg>
