<svg width="41" height="40" viewBox="0 0 41 40" fill="none" xmlns="http://www.w3.org/2000/svg">
<path d="M17.1667 36.6667V25H13.8334V15C13.8334 14.0833 14.16 13.2989 14.8134 12.6467C15.4667 11.9944 16.2512 11.6678 17.1667 11.6667H23.8334C24.75 11.6667 25.535 11.9933 26.1884 12.6467C26.8417 13.3 27.1678 14.0844 27.1667 15V25H23.8334V36.6667H17.1667ZM20.5 9.99999C19.5834 9.99999 18.7989 9.67388 18.1467 9.02166C17.4945 8.36943 17.1678 7.58443 17.1667 6.66666C17.1656 5.74888 17.4923 4.96444 18.1467 4.31332C18.8012 3.66221 19.5856 3.33555 20.5 3.33332C21.4145 3.3311 22.1995 3.65777 22.855 4.31332C23.5106 4.96888 23.8367 5.75332 23.8334 6.66666C23.83 7.57999 23.5039 8.36499 22.855 9.02166C22.2062 9.67832 21.4212 10.0044 20.5 9.99999Z" fill="#657838"/>
</svg>
