<svg width="32" height="32" viewBox="0 0 32 32" fill="none" xmlns="http://www.w3.org/2000/svg">
<g id="Emojis/Circle/Very Happy" clip-path="url(#clip0_2021_2509)">
<path id="Icon" d="M16 24C12.0059 24 10.5668 21.7565 9.86251 20.0699C9.58757 19.4114 10.1198 18.6666 10.8334 18.6666H21.1667C21.8803 18.6666 22.4125 19.4114 22.1376 20.0699C21.4333 21.7565 19.9942 24 16 24Z" stroke="#F7AB37" stroke-width="2.5" stroke-linecap="round"/>
<path id="Icon_2" d="M8 12C8.22222 11.5556 9.06667 10.6667 10.6667 10.6667C12.2667 10.6667 13.1111 11.5556 13.3333 12" stroke="#F7AB37" stroke-width="2.5" stroke-linecap="round"/>
<path id="Icon_3" d="M18.6666 12C18.8888 11.5556 19.7333 10.6667 21.3333 10.6667C22.9333 10.6667 23.7777 11.5556 24 12" stroke="#F7AB37" stroke-width="2.5" stroke-linecap="round"/>
<path id="Icon_4" d="M16 30.6667C24.1002 30.6667 30.6667 24.1002 30.6667 16C30.6667 7.89986 24.1002 1.33337 16 1.33337C7.89986 1.33337 1.33337 7.89986 1.33337 16C1.33337 24.1002 7.89986 30.6667 16 30.6667Z" stroke="#F7AB37" stroke-width="2.5" stroke-linecap="round"/>
</g>
<defs>
<clipPath id="clip0_2021_2509">
<rect width="32" height="32" fill="white"/>
</clipPath>
</defs>
</svg>
