<svg width="41" height="40" viewBox="0 0 41 40" fill="none" xmlns="http://www.w3.org/2000/svg">
<path d="M17.1666 36.6667V26.6667H12.1666L17.25 13.8333C17.5277 13.1667 17.9583 12.6389 18.5416 12.25C19.125 11.8611 19.7777 11.6667 20.5 11.6667C21.2222 11.6667 21.875 11.8611 22.4583 12.25C23.0416 12.6389 23.4722 13.1667 23.75 13.8333L28.8333 26.6667H23.8333V36.6667H17.1666ZM20.5 9.99999C19.5833 9.99999 18.7988 9.67388 18.1466 9.02166C17.4944 8.36943 17.1677 7.58443 17.1666 6.66666C17.1655 5.74888 17.4922 4.96444 18.1466 4.31332C18.8011 3.66221 19.5855 3.33555 20.5 3.33332C21.4144 3.3311 22.1994 3.65777 22.855 4.31332C23.5105 4.96888 23.8366 5.75332 23.8333 6.66666C23.83 7.57999 23.5038 8.36499 22.855 9.02166C22.2061 9.67832 21.4211 10.0044 20.5 9.99999Z" fill="#F7AB37"/>
</svg>
