<svg width="33" height="32" viewBox="0 0 33 32" fill="none" xmlns="http://www.w3.org/2000/svg">
<rect x="0.714355" width="32" height="32" rx="16" fill="#657838"/>
<path d="M22.5098 12.1862C22.4519 11.9592 22.2874 11.7877 22.0992 11.7352C21.7654 11.6414 20.1434 11.4281 16.7148 11.4281C13.2862 11.4281 11.6649 11.6414 11.3289 11.7352C11.143 11.787 10.9784 11.9584 10.9197 12.1862C10.8367 12.5092 10.6195 13.8624 10.6195 15.9995C10.6195 18.1359 10.8367 19.4891 10.9197 19.8136C10.9776 20.0399 11.1422 20.2113 11.3296 20.2632C11.6649 20.3576 13.2854 20.571 16.714 20.571C20.1426 20.571 21.7647 20.3576 22.0999 20.2639C22.2858 20.2121 22.4504 20.0407 22.5091 19.8129C22.5929 19.4898 22.8093 18.1329 22.8093 15.9995C22.8093 13.8662 22.5929 12.51 22.5098 12.1862ZM23.9849 11.8075C24.3331 13.1652 24.3331 15.9995 24.3331 15.9995C24.3331 15.9995 24.3331 18.8338 23.9849 20.1915C23.7914 20.942 23.2253 21.5325 22.5083 21.7321C21.207 22.0948 16.714 22.0948 16.714 22.0948C16.714 22.0948 12.2241 22.0948 10.9197 21.7321C10.1997 21.5294 9.6344 20.9397 9.44316 20.1915C9.09497 18.8338 9.09497 15.9995 9.09497 15.9995C9.09497 15.9995 9.09497 13.1652 9.44316 11.8075C9.63669 11.0571 10.2028 10.4666 10.9197 10.267C12.2249 9.9043 16.7148 9.9043 16.7148 9.9043C16.7148 9.9043 21.207 9.9043 22.5091 10.267C23.2283 10.4696 23.7944 11.0593 23.9856 11.8075M15.191 18.6662V13.3329L19.7624 15.9995L15.191 18.6662Z" fill="#EBEBEB"/>
</svg>
