<svg width="41" height="40" viewBox="0 0 41 40" fill="none" xmlns="http://www.w3.org/2000/svg">
<rect x="0.714355" width="40" height="40" rx="20" fill="white"/>
<rect width="22.8571" height="22.8571" transform="translate(9.28418 8.57169)" fill="white"/>
<path d="M27.9575 15.2339C27.8852 14.9501 27.6794 14.7358 27.4442 14.6701C27.0271 14.553 24.9994 14.2863 20.7137 14.2863C16.428 14.2863 14.4013 14.553 13.9813 14.6701C13.749 14.7349 13.5433 14.9492 13.4699 15.2339C13.3661 15.6378 13.0947 17.3292 13.0947 20.0006C13.0947 22.6711 13.3661 24.3625 13.4699 24.7682C13.5423 25.0511 13.748 25.2654 13.9823 25.3301C14.4013 25.4482 16.4271 25.7149 20.7128 25.7149C24.9985 25.7149 27.0261 25.4482 27.4452 25.3311C27.6775 25.2663 27.8833 25.052 27.9566 24.7673C28.0613 24.3635 28.3318 22.6673 28.3318 20.0006C28.3318 17.3339 28.0613 15.6387 27.9575 15.2339ZM29.8013 14.7606C30.2366 16.4578 30.2366 20.0006 30.2366 20.0006C30.2366 20.0006 30.2366 23.5435 29.8013 25.2406C29.5594 26.1787 28.8518 26.9168 27.9556 27.1663C26.329 27.6197 20.7128 27.6197 20.7128 27.6197C20.7128 27.6197 15.1004 27.6197 13.4699 27.1663C12.5699 26.913 11.8633 26.1759 11.6242 25.2406C11.189 23.5435 11.189 20.0006 11.189 20.0006C11.189 20.0006 11.189 16.4578 11.6242 14.7606C11.8661 13.8225 12.5737 13.0844 13.4699 12.8349C15.1013 12.3816 20.7137 12.3816 20.7137 12.3816C20.7137 12.3816 26.329 12.3816 27.9566 12.8349C28.8556 13.0882 29.5633 13.8254 29.8023 14.7606M18.809 23.3339V16.6673L24.5233 20.0006L18.809 23.3339Z" fill="#657838"/>
</svg>
